<svg width="16" height="6" viewBox="0 0 16 6" fill="none" xmlns="http://www.w3.org/2000/svg">
<g clip-path="url(#clip0_3_46)">
<path d="M7 1.06147H6.5H6H5.5H5L4.5 1.56147V2.06147V2.56147V3.06147V3.56147V4.06147V4.56147L5 5.06147H5.5H6H6.5H7" stroke="#361140" stroke-width="0.7" stroke-linecap="round"/>
<path d="M4.5 3.06147H5L5.5 3.06147H6H6.5H7" stroke="#361140" stroke-width="0.7" stroke-linecap="round"/>
<path d="M4 5.06147V4.56147V4.06147V3.56147V3.06147V2.56147V2.06147V1.56147V1.06147" stroke="#361140" stroke-width="0.7" stroke-linecap="round"/>
<path d="M1 5.06147V4.56147V4.06147V3.56147V3.06147V2.56147V2.06147V1.56147V1.06147" stroke="#361140" stroke-width="0.7" stroke-linecap="round"/>
<path d="M3.93174 4.92373L3.57539 4.43327L3.21905 3.9428L2.8627 3.45233L2.50636 2.96187L2.15001 2.4714L1.79367 1.98093L1.43732 1.49047L1.08098 1" stroke="#361140" stroke-width="0.7" stroke-linecap="round"/>
<path d="M7.796 5.06147V2.97347H8.308V3.32147H8.328C8.368 3.21214 8.432 3.1188 8.52 3.04147C8.608 2.96414 8.73067 2.92547 8.888 2.92547C9.032 2.92547 9.156 2.96014 9.26 3.02947C9.364 3.0988 9.44133 3.20414 9.492 3.34547H9.5C9.53733 3.22814 9.61067 3.12947 9.72 3.04947C9.832 2.9668 9.972 2.92547 10.14 2.92547C10.3453 2.92547 10.5027 2.99614 10.612 3.13747C10.724 3.2788 10.78 3.48014 10.78 3.74147V5.06147H10.268V3.79347C10.268 3.4948 10.156 3.34547 9.932 3.34547C9.88133 3.34547 9.832 3.35347 9.784 3.36947C9.73867 3.3828 9.69733 3.40414 9.66 3.43347C9.62533 3.46014 9.59733 3.4948 9.576 3.53747C9.55467 3.57747 9.544 3.62547 9.544 3.68147V5.06147H9.032V3.79347C9.032 3.4948 8.92 3.34547 8.696 3.34547C8.648 3.34547 8.6 3.35347 8.552 3.36947C8.50667 3.3828 8.46533 3.40414 8.428 3.43347C8.39333 3.46014 8.364 3.4948 8.34 3.53747C8.31867 3.57747 8.308 3.62547 8.308 3.68147V5.06147H7.796ZM12.8828 5.06147C12.7708 5.06147 12.6814 5.02947 12.6148 4.96547C12.5508 4.8988 12.5108 4.8108 12.4948 4.70147H12.4708C12.4361 4.83747 12.3654 4.94014 12.2588 5.00947C12.1521 5.07614 12.0201 5.10947 11.8628 5.10947C11.6494 5.10947 11.4854 5.05347 11.3708 4.94147C11.2561 4.82947 11.1988 4.68014 11.1988 4.49347C11.1988 4.27747 11.2761 4.11747 11.4308 4.01347C11.5854 3.9068 11.8054 3.85347 12.0908 3.85347H12.4468V3.70147C12.4468 3.58414 12.4161 3.49347 12.3548 3.42947C12.2934 3.36547 12.1948 3.33347 12.0588 3.33347C11.9388 3.33347 11.8414 3.36014 11.7668 3.41347C11.6948 3.46414 11.6334 3.52547 11.5828 3.59747L11.2788 3.32547C11.3561 3.20547 11.4588 3.10947 11.5868 3.03747C11.7148 2.9628 11.8841 2.92547 12.0948 2.92547C12.3774 2.92547 12.5921 2.98947 12.7388 3.11747C12.8854 3.24547 12.9588 3.42947 12.9588 3.66947V4.65347H13.1668V5.06147H12.8828ZM12.0348 4.73747C12.1494 4.73747 12.2468 4.71214 12.3268 4.66147C12.4068 4.6108 12.4468 4.53614 12.4468 4.43747V4.16147H12.1188C11.8521 4.16147 11.7188 4.2468 11.7188 4.41747V4.48547C11.7188 4.5708 11.7454 4.6348 11.7988 4.67747C11.8548 4.71747 11.9334 4.73747 12.0348 4.73747ZM14.0932 5.06147C13.9172 5.06147 13.7878 5.01747 13.7052 4.92947C13.6225 4.84147 13.5812 4.71747 13.5812 4.55747V2.10147H14.0932V4.65347H14.3692V5.06147H14.0932ZM15.2416 5.06147C15.0656 5.06147 14.9363 5.01747 14.8536 4.92947C14.7709 4.84147 14.7296 4.71747 14.7296 4.55747V2.10147H15.2416V4.65347H15.5176V5.06147H15.2416Z" fill="#361140"/>
</g>
<defs>
<clipPath id="clip0_3_46">
<rect width="16" height="6" fill="white"/>
</clipPath>
</defs>
</svg>
