<svg width="10" height="10" viewBox="0 0 10 10" fill="none" xmlns="http://www.w3.org/2000/svg">
<mask id="path-1-inside-1_9_87" fill="white">
<path d="M5 6C6.72593 6 8.19607 6.95667 8.75684 8.29688C7.84046 9.34026 6.4978 10 5 10C3.50197 10 2.15857 9.34054 1.24219 8.29688C1.80285 6.95649 3.27392 6 5 6Z"/>
</mask>
<path d="M8.75684 8.29688L9.05738 8.56083L9.22231 8.37304L9.12584 8.14248L8.75684 8.29688ZM1.24219 8.29688L0.873169 8.14252L0.776749 8.37303L0.94161 8.56079L1.24219 8.29688ZM5 6V6.4C6.58464 6.4 7.89668 7.27744 8.38784 8.45127L8.75684 8.29688L9.12584 8.14248C8.49545 6.6359 6.86721 5.6 5 5.6V6ZM8.75684 8.29688L8.45629 8.03292C7.61242 8.99376 6.37759 9.6 5 9.6V10V10.4C6.61801 10.4 8.06851 9.68676 9.05738 8.56083L8.75684 8.29688ZM5 10V9.6C3.62206 9.6 2.38656 8.99395 1.54277 8.03296L1.24219 8.29688L0.94161 8.56079C1.93058 9.68714 3.38188 10.4 5 10.4V10ZM1.24219 8.29688L1.61121 8.45123C2.10221 7.27737 3.41506 6.4 5 6.4V6V5.6C3.13279 5.6 1.50349 6.6356 0.873169 8.14252L1.24219 8.29688Z" fill="#4D0CA9" mask="url(#path-1-inside-1_9_87)"/>
<circle cx="5" cy="5" r="4.75" stroke="black" stroke-width="0.5"/>
<circle cx="5" cy="4" r="1.8" stroke="#4D0CA9" stroke-width="0.4"/>
</svg>
